<svg width="64" height="64" viewBox="0 0 64 64" fill="none" xmlns="http://www.w3.org/2000/svg">
  <!-- Outer shield shape -->
  <path d="M32 4L52 12V28C52 40 44 52 32 58C20 52 12 40 12 28V12L32 4Z" fill="url(#shieldGradient)" stroke="url(#shieldStroke)" stroke-width="2"/>

  <!-- Inner shield highlight -->
  <path d="M32 8L48 14V26C48 36 42 46 32 50C22 46 16 36 16 26V14L32 8Z" fill="url(#innerGradient)" opacity="0.6"/>

  <!-- Cyber grid pattern -->
  <defs>
    <pattern id="grid" width="4" height="4" patternUnits="userSpaceOnUse">
      <path d="M 4 0 L 0 0 0 4" fill="none" stroke="#00ff88" stroke-width="0.5" opacity="0.3"/>
    </pattern>
  </defs>
  <rect x="16" y="16" width="32" height="32" fill="url(#grid)" opacity="0.4"/>

  <!-- Circuit lines -->
  <path d="M20 20 L24 20 L24 24 M28 24 L32 24 L32 28 M36 28 L40 28 L40 32 M44 32 L44 36" stroke="#00ff88" stroke-width="1.5" opacity="0.8"/>
  <path d="M44 36 L40 36 L40 40 M36 40 L32 40 L32 44" stroke="#00ff88" stroke-width="1.5" opacity="0.8"/>

  <!-- Central AI brain/processor icon -->
  <circle cx="32" cy="32" r="6" fill="url(#brainGradient)" stroke="#00ff88" stroke-width="1"/>
  <path d="M28 28 L30 30 M34 30 L36 32 M30 34 L32 36 M34 34 L36 32" stroke="#00ff88" stroke-width="1" opacity="0.9"/>

  <!-- Scanning lines animation effect -->
  <rect x="14" y="30" width="36" height="1" fill="#00ff88" opacity="0.6">
    <animate attributeName="opacity" values="0.6;1;0.6" dur="2s" repeatCount="indefinite"/>
  </rect>
  <rect x="30" y="14" width="1" height="36" fill="#00ff88" opacity="0.6">
    <animate attributeName="opacity" values="0.6;1;0.6" dur="2s" repeatCount="indefinite"/>
  </rect>

  <!-- Corner accents -->
  <circle cx="16" cy="16" r="2" fill="#ff4444" opacity="0.8"/>
  <circle cx="48" cy="16" r="2" fill="#0088ff" opacity="0.8"/>
  <circle cx="16" cy="48" r="2" fill="#ffaa00" opacity="0.8"/>
  <circle cx="48" cy="48" r="2" fill="#aa44ff" opacity="0.8"/>

  <!-- Gradients -->
  <defs>
    <linearGradient id="shieldGradient" x1="0%" y1="0%" x2="100%" y2="100%">
      <stop offset="0%" style="stop-color:#1a1a1a;stop-opacity:1" />
      <stop offset="50%" style="stop-color:#2a2a2a;stop-opacity:1" />
      <stop offset="100%" style="stop-color:#111111;stop-opacity:1" />
    </linearGradient>

    <linearGradient id="shieldStroke" x1="0%" y1="0%" x2="100%" y2="100%">
      <stop offset="0%" style="stop-color:#00ff88;stop-opacity:0.8" />
      <stop offset="50%" style="stop-color:#00dd77;stop-opacity:1" />
      <stop offset="100%" style="stop-color:#00bb66;stop-opacity:0.8" />
    </linearGradient>

    <linearGradient id="innerGradient" x1="0%" y1="0%" x2="100%" y2="100%">
      <stop offset="0%" style="stop-color:#00ff88;stop-opacity:0.2" />
      <stop offset="100%" style="stop-color:#00ff88;stop-opacity:0.1" />
    </linearGradient>

    <radialGradient id="brainGradient" cx="50%" cy="50%" r="50%">
      <stop offset="0%" style="stop-color:#00ff88;stop-opacity:0.9" />
      <stop offset="70%" style="stop-color:#00dd77;stop-opacity:0.7" />
      <stop offset="100%" style="stop-color:#00bb66;stop-opacity:0.5" />
    </radialGradient>
  </defs>
</svg>
